<svg width="283" height="38" viewBox="0 0 283 38" fill="none" xmlns="http://www.w3.org/2000/svg">
<g clip-path="url(#clip0_2096_47)">
<path d="M134.477 19C134.477 8.69636 126.358 0.308683 116.214 0V23.6515H121.792V36.9569C129.173 34.381 134.467 27.3238 134.467 19H134.477Z" fill="#0049E6"/>
<path d="M116.224 23.6515V0H114.337V23.6515V37.9894L116.224 38V23.6515Z" fill="white"/>
<path d="M105.817 31.0387C105.817 29.2611 107.251 27.8134 109.012 27.8134V23.6515H114.347V0C104.266 0.372549 96.1997 8.72829 96.1997 18.9894C96.1997 27.3664 101.567 34.4661 109.012 36.9994V34.2532C107.251 34.2532 105.817 32.8056 105.817 31.028V31.0387Z" fill="#0049E6"/>
<path d="M107.282 31.0387C107.282 31.9967 108.052 32.7844 109.012 32.7844V29.3037C108.063 29.3037 107.282 30.0807 107.282 31.0494V31.0387Z" fill="#0049E6"/>
<path d="M114.337 23.6516H109.001V27.8135C107.24 27.8135 105.806 29.2611 105.806 31.0387C105.806 32.8163 107.24 34.2639 109.001 34.2639V37.0102C110.688 37.5849 112.47 37.9256 114.337 38.0001V23.6623V23.6516ZM109.001 32.7737C108.052 32.7737 107.272 31.9967 107.272 31.0281C107.272 30.0595 108.042 29.2824 109.001 29.2824V32.7631V32.7737Z" fill="white"/>
<path d="M116.224 23.6516V38.0001C118.175 37.9362 120.052 37.5743 121.802 36.9569V23.6516H116.224Z" fill="white"/>
<path d="M0 32.4437L2.73109 27.2706C4.19681 28.1541 5.47272 28.7395 6.55883 29.0482C7.64494 29.3569 8.78378 29.5165 9.97533 29.5165C11.557 29.5165 12.717 29.2079 13.4656 28.6011C14.2143 27.9944 14.5834 27.1535 14.5834 26.0997C14.5834 25.046 14.2881 24.3009 13.6871 23.758C13.086 23.2151 11.9894 22.7574 10.376 22.3849C7.10716 21.6291 4.73459 20.5541 3.24778 19.1703C1.76097 17.7866 1.02284 15.8493 1.02284 13.3586C1.02284 10.8678 1.98241 8.7283 3.90156 6.98265C5.8207 5.22634 8.50961 4.35352 11.9683 4.35352C13.4129 4.35352 14.8259 4.51318 16.2178 4.84315C17.6097 5.17312 18.9278 5.65211 20.1826 6.29077L17.7152 11.549C16.5869 10.8997 15.5219 10.442 14.5307 10.1653C13.5395 9.88853 12.6115 9.75015 11.7574 9.75015C10.4393 9.75015 9.40592 10.0163 8.67833 10.5378C7.9402 11.0594 7.57113 11.8045 7.57113 12.7838C7.57113 13.6779 7.90856 14.3591 8.58343 14.8488C9.25829 15.3277 10.4604 15.7748 12.2108 16.1686C15.3848 16.8924 17.673 17.9782 19.0965 19.4258C20.5095 20.8734 21.216 22.9065 21.216 25.5249C21.216 28.3244 20.2354 30.5916 18.2846 32.3266C16.3338 34.0616 13.4973 34.9238 9.77498 34.9238C8.15109 34.9238 6.46393 34.7109 4.69241 34.2745C2.9209 33.8381 1.36027 33.2314 0 32.4544L0 32.4437Z" fill="#0049E6"/>
<path d="M32.4249 34.4021H25.8345V4.84302H32.4249V34.4021Z" fill="#0049E6"/>
<path d="M39.0786 34.4021V4.84302H49.4546C54.6532 4.84302 58.5548 6.04582 61.1593 8.44078C63.7639 10.8357 65.0609 14.4441 65.0609 19.2553C65.0609 24.0665 63.6373 27.5366 60.8008 30.2828C57.9643 33.029 54.1787 34.4021 49.4546 34.4021H39.0786ZM45.6691 10.2716V29.0055H48.938C51.7956 29.0055 54.0416 28.1433 55.6655 26.4083C57.2894 24.6733 58.1013 22.3209 58.1013 19.3405C58.1013 16.5198 57.2999 14.3058 55.6866 12.6878C54.0732 11.0699 51.8061 10.2716 48.8958 10.2716H45.6691Z" fill="#0049E6"/>
<path d="M87.4686 34.4021H69.9116V4.84302H86.7938V10.2609H76.5021V16.8391H86.0767V22.2357H76.5021V28.9948H87.4686V34.3915V34.4021Z" fill="#0049E6"/>
<path d="M165.025 32.9546C163.486 33.6465 161.999 34.1362 160.554 34.4448C159.11 34.7535 157.549 34.9132 155.883 34.9132C151.328 34.9132 147.732 33.6252 145.117 31.0493C142.502 28.4734 141.184 24.7905 141.184 19.9899C141.184 15.4981 142.618 11.7619 145.475 8.80282C148.333 5.83307 152.108 4.35352 156.79 4.35352C158.35 4.35352 159.753 4.45996 160.987 4.68349C162.22 4.90702 163.496 5.25828 164.835 5.75856L162.895 11.1339C161.883 10.7614 160.923 10.4953 159.995 10.3249C159.067 10.1653 158.066 10.0801 156.99 10.0801C154.597 10.0801 152.519 10.9317 150.758 12.6241C148.997 14.3165 148.122 16.6157 148.122 19.5216C148.122 22.4275 148.892 24.865 150.421 26.5468C151.95 28.2392 154.048 29.0801 156.716 29.0801C157.412 29.0801 158.287 28.963 159.363 28.7395C160.428 28.516 161.535 28.1434 162.684 27.6112L165.036 32.9546H165.025Z" fill="#0049E6"/>
<path d="M180.357 34.9131C176.161 34.9131 172.744 33.54 170.108 30.7831C167.472 28.0262 166.143 24.4391 166.143 20.0111C166.143 15.3383 167.482 11.5596 170.161 8.67499C172.839 5.79039 176.393 4.34277 180.821 4.34277C184.997 4.34277 188.382 5.72653 190.955 8.48339C193.538 11.2403 194.825 14.8912 194.825 19.4044C194.825 23.9176 193.486 27.7921 190.807 30.6341C188.129 33.4761 184.649 34.9024 180.347 34.9024L180.357 34.9131ZM180.484 29.1652C182.762 29.1652 184.565 28.3349 185.893 26.6851C187.222 25.0246 187.897 22.736 187.897 19.7876C187.897 16.8391 187.254 14.3377 185.957 12.6346C184.66 10.9316 182.899 10.08 180.653 10.08C178.407 10.08 176.498 10.9529 175.138 12.7092C173.777 14.4655 173.092 16.7753 173.092 19.6599C173.092 22.5445 173.777 24.9075 175.138 26.6106C176.498 28.3136 178.28 29.1652 180.484 29.1652Z" fill="#0049E6"/>
<path d="M216.621 10.2609H206.287V17.5203H215.777V22.917H206.287V34.4021H199.696V4.84302H216.621V10.2609Z" fill="#0049E6"/>
<path d="M238.364 10.2609H228.03V17.5203H237.521V22.917H228.03V34.4021H221.44V4.84302H238.364V10.2609Z" fill="#0049E6"/>
<path d="M260.74 34.4021H243.183V4.84302H260.065V10.2609H249.774V16.8391H259.348V22.2357H249.774V28.9948H260.74V34.3915V34.4021Z" fill="#0049E6"/>
<path d="M283 34.4021H265.443V4.84302H282.325V10.2609H272.033V16.8391H281.608V22.2357H272.033V28.9948H283V34.3915V34.4021Z" fill="#0049E6"/>
<path d="M103.275 19.064L102.442 18.4466C102.632 18.2018 102.759 17.9782 102.843 17.7866C102.927 17.595 102.98 17.3928 103.001 17.1693C103.043 16.8819 103.012 16.6583 102.927 16.5093C102.832 16.3603 102.706 16.2752 102.516 16.2432C102.337 16.2219 102.2 16.2539 102.084 16.3497C101.978 16.4455 101.873 16.6371 101.767 16.9245C101.556 17.5099 101.314 17.9144 101.04 18.1485C100.766 18.3827 100.407 18.4785 99.9748 18.4253C99.5424 18.3721 99.1945 18.1485 98.9308 17.7547C98.6672 17.3609 98.5829 16.8499 98.6672 16.2219C98.6988 15.9558 98.7621 15.7004 98.857 15.4555C98.9414 15.2107 99.0679 14.9766 99.205 14.7637L100.059 15.3385C99.922 15.5301 99.8166 15.711 99.7428 15.892C99.669 16.0623 99.6268 16.2326 99.6057 16.3922C99.5741 16.6371 99.6057 16.8287 99.669 16.9777C99.7428 17.1267 99.8693 17.2119 100.038 17.2331C100.196 17.2544 100.323 17.2119 100.418 17.0948C100.513 16.9777 100.618 16.7754 100.734 16.4668C100.934 15.9026 101.177 15.5088 101.462 15.2852C101.746 15.0617 102.115 14.9766 102.579 15.0404C103.064 15.1043 103.444 15.3385 103.697 15.7323C103.95 16.1261 104.034 16.669 103.95 17.3502C103.908 17.6483 103.834 17.9569 103.718 18.2656C103.602 18.5743 103.455 18.8511 103.286 19.0852L103.275 19.064Z" fill="white"/>
<path d="M104.857 13.6353L104.403 14.7636L99.5845 12.805L100.038 11.6768L104.857 13.6353Z" fill="white"/>
<path d="M105.078 12.7625L101.082 9.39889L102.295 7.92998C102.906 7.19553 103.518 6.7804 104.151 6.6846C104.773 6.58881 105.416 6.81234 106.07 7.36584C106.692 7.88741 107.019 8.50477 107.061 9.21794C107.103 9.9311 106.839 10.623 106.291 11.2936L105.078 12.7625ZM102.59 9.09021L105.121 11.2191L105.5 10.7507C105.838 10.3462 105.985 9.9311 105.933 9.50533C105.89 9.07956 105.669 8.69637 105.258 8.35575C104.878 8.03642 104.488 7.89805 104.077 7.94063C103.665 7.9832 103.296 8.21738 102.959 8.62186L102.579 9.07956L102.59 9.09021Z" fill="white"/>
<path d="M111.405 7.45091L108.579 8.98368L106.123 4.36407L108.843 2.88452L109.297 3.73606L107.641 4.63018L108.189 5.66267L109.729 4.82178L110.182 5.66267L108.643 6.50357L109.202 7.55735L110.963 6.59937L111.416 7.44026L111.405 7.45091Z" fill="white"/>
<path d="M121.412 8.18535C121.106 8.20664 120.822 8.18535 120.558 8.15342C120.294 8.11084 120.02 8.03633 119.725 7.92989C118.945 7.6425 118.407 7.19544 118.112 6.59936C117.816 6.00328 117.816 5.3114 118.112 4.50244C118.386 3.75734 118.85 3.22513 119.525 2.9058C120.189 2.59712 120.927 2.58648 121.728 2.88451C121.992 2.98031 122.224 3.08676 122.424 3.20384C122.625 3.32093 122.825 3.4593 123.015 3.62961L122.361 4.40664C122.213 4.27891 122.055 4.17247 121.908 4.08732C121.76 4.00216 121.591 3.92765 121.412 3.85314C121.001 3.70412 120.59 3.71477 120.189 3.88507C119.788 4.05538 119.493 4.38535 119.324 4.86435C119.145 5.36463 119.134 5.80104 119.293 6.18423C119.451 6.56743 119.767 6.83353 120.221 7.00384C120.337 7.04642 120.495 7.089 120.695 7.11028C120.895 7.14222 121.106 7.15286 121.328 7.13157L121.412 8.17471V8.18535Z" fill="white"/>
<path d="M123.026 10.0694C122.456 9.55853 122.151 8.9518 122.119 8.25993C122.087 7.56805 122.33 6.92939 122.847 6.3546C123.395 5.73724 124.017 5.40727 124.724 5.35404C125.43 5.30082 126.084 5.54564 126.685 6.09914C127.254 6.61007 127.55 7.21679 127.571 7.89802C127.592 8.57925 127.339 9.21791 126.811 9.81399C126.263 10.4314 125.641 10.7613 124.945 10.8039C124.249 10.8465 123.606 10.6123 123.026 10.0801V10.0694ZM123.722 9.32435C124.028 9.6011 124.376 9.71819 124.745 9.66497C125.124 9.61175 125.483 9.38822 125.831 9.00502C126.189 8.60054 126.379 8.2067 126.411 7.82351C126.432 7.44032 126.295 7.11035 125.989 6.8336C125.673 6.5462 125.325 6.43976 124.934 6.50362C124.544 6.56749 124.175 6.79102 123.838 7.17421C123.49 7.5574 123.311 7.95124 123.3 8.34508C123.289 8.73892 123.427 9.06889 123.722 9.34564V9.32435Z" fill="white"/>
<path d="M130.354 13.0924L129.489 11.3999L128.351 11.996L129.152 13.5501L128.308 13.9865L127.517 12.4324L125.725 13.3691L125.166 12.294L129.785 9.88843L131.208 12.6559L130.365 13.0924H130.354Z" fill="white"/>
<path d="M131.451 17.8611L131.103 15.9878L129.848 16.2219L130.164 17.9357L129.237 18.1166L128.92 16.3922L126.938 16.7648L126.716 15.5726L131.82 14.604L132.389 17.6696L131.451 17.8505V17.8611Z" fill="white"/>
<path d="M126.896 22.3955L127.265 19.1809L132.432 19.777L132.084 22.8745L131.135 22.768L131.345 20.884L130.196 20.7563L129.996 22.5126L129.047 22.4061L129.247 20.6498L128.066 20.5114L127.834 22.5232L126.896 22.4168V22.3955Z" fill="white"/>
<path d="M125.398 25.8017L126.706 22.8533L131.451 25.0034L130.186 27.8454L129.31 27.4516L130.08 25.7166L129.026 25.2376L128.309 26.8449L127.444 26.451L128.161 24.8437L127.075 24.3541L126.252 26.1956L125.388 25.8017H125.398Z" fill="white"/>
</g>
<defs>
<clipPath id="clip0_2096_47">
<rect width="283" height="38" fill="white"/>
</clipPath>
</defs>
</svg>
